:version 1.10
:name ASF
:units
  mass 1
  length 1
  angle deg
:documentation
  ASF file generated by Kaydara
:root
  axis xyz
  order  tx ty tz rx ry rz
  position 0 0 0
  orientation 0 0 0
:bonedata
  begin
    id 1
    name LeftUpLegDummy
    direction 1 -2.30186e-007 -8.31532e-007
    length 2.93387
    axis 0 0 0 xyz
  end
  begin
    id 2
    name LeftUpLeg
    direction -1.82929e-007 -1 -1.48925e-009
    length 17.3336
    axis -3.48766 0.00143442 -0.000521554 xyz
    dof rx ry rz
  end
  begin
    id 3
    name LeftLeg
    direction -1.82929e-007 -1 -5.23717e-011
    length 14.9995
    axis 3.68178 -0.00654042 -0.000282425 xyz
    dof rx ry rz
  end
  begin
    id 4
    name LeftFoot
    direction 8.31532e-007 -4.54534e-011 1
    length 6.74421
    axis 1.87234e-006 4.66016e-005 -5.96866e-006 xyz
    dof rx ry rz
  end
  begin
    id 5
    name LeftToes
    direction 0.00818058 -0.00485161 0.999955
    length 3.85048
    axis 1.06247e-005 4.65869e-005 -5.96999e-006 xyz
    dof rx ry rz
  end
  begin
    id 6
    name SpineDummy
    direction -5.8607e-008 0.943407 -0.331637
    length 5.93572
    axis 0 0 0 xyz
  end
  begin
    id 7
    name Spine
    direction -1.04988e-007 0.999988 0.00495137
    length 10.1015
    axis -0.001389 0.000121417 6.61666e-006 xyz
    dof rx ry rz
  end
  begin
    id 8
    name Spine1
    direction 0 0 0
    length 0
    axis -0.001389 0.00012144 6.56766e-006 xyz
    dof rx ry rz
  end
  begin
    id 9
    name RightShoulderDummy
    direction -0.98348 0.17941 -0.0240696
    length 3.59882
    axis -0.001389 0.00012144 6.56766e-006 xyz
  end
  begin
    id 10
    name RightShoulder
    direction -0.978693 0.204882 0.0135597
    length 2.70001
    axis 0.215806 0.000203631 -0.00679732 xyz
    dof rx ry rz
  end
  begin
    id 11
    name RightArm
    direction -1 3.85509e-006 8.31394e-007
    length 10.2459
    axis -23.2009 -0.134239 -0.964098 xyz
    dof rx ry rz
  end
  begin
    id 12
    name RightForeArm
    direction -1 3.85569e-006 8.3129e-007
    length 8.16799
    axis -9.92322 0.0658061 0.17887 xyz
    dof rx ry rz
  end
  begin
    id 13
    name RightHand
    direction -0.992843 -0.0414604 0.112003
    length 5.28593
    axis -0.00960638 0.00330669 -0.185225 xyz
    dof rx ry rz
  end
  begin
    id 14
    name LeftShoulder1Dummy
    direction 0.983523 0.179172 -0.0240748
    length 3.59866
    axis -0.001389 0.00012144 6.56766e-006 xyz
  end
  begin
    id 15
    name LeftShoulder1
    direction 0.978627 0.205195 0.0135605
    length 2.70019
    axis -0.001389 0.00012144 6.57583e-006 xyz
    dof rx ry rz
  end
  begin
    id 16
    name LeftArm
    direction 1 3.51895e-006 -8.60188e-007
    length 10.2459
    axis -23.1894 0.134785 0.967513 xyz
    dof rx ry rz
  end
  begin
    id 17
    name LeftForeArm
    direction 1 3.51921e-006 -7.32029e-007
    length 8.16799
    axis -9.91835 -0.0656957 -0.177789 xyz
    dof rx ry rz
  end
  begin
    id 18
    name LeftHand
    direction 0.992938 -0.0411636 0.11126
    length 5.32135
    axis -0.00960237 -0.00340661 0.185177 xyz
    dof rx ry rz
  end
  begin
    id 19
    name HEadDummy
    direction 1.01974e-006 0.999861 -0.016675
    length 2.99946
    axis -0.001389 0.00012144 6.56766e-006 xyz
  end
  begin
    id 20
    name HEad
    direction -0.0222689 0.980941 0.193023
    length 5.12695
    axis -0.001389 0.00012144 6.56766e-006 xyz
    dof rx ry rz
  end
  begin
    id 21
    name RightUpLegDummy
    direction -1 2.30186e-007 8.31532e-007
    length 2.93387
    axis 0 0 0 xyz
  end
  begin
    id 22
    name RightUpLeg
    direction -1.82966e-007 -1 1.56832e-007
    length 17.3336
    axis -3.4909 -0.000906625 0.00028951 xyz
    dof rx ry rz
  end
  begin
    id 23
    name RightLeg
    direction -1.82786e-007 -1 -1.80317e-007
    length 14.9995
    axis 3.68513 0.0193739 -0.131021 xyz
    dof rx ry rz
  end
  begin
    id 24
    name RightFoot
    direction 8.31721e-007 -4.63324e-011 1
    length 6.74421
    axis 4.81691e-005 -0.120479 -0.188785 xyz
    dof rx ry rz
  end
  begin
    id 25
    name RightToes
    direction 0.00124746 -0.014064 0.9999
    length 3.85082
    axis 0.000481921 0.542163 -0.142575 xyz
    dof rx ry rz
  end
:hierarchy
  begin
    root LeftUpLegDummy SpineDummy RightUpLegDummy
    LeftUpLegDummy LeftUpLeg
    LeftUpLeg LeftLeg
    LeftLeg LeftFoot
    LeftFoot LeftToes
    SpineDummy Spine
    Spine Spine1
    Spine1 RightShoulderDummy LeftShoulder1Dummy HEadDummy
    RightShoulderDummy RightShoulder
    RightShoulder RightArm
    RightArm RightForeArm
    RightForeArm RightHand
    LeftShoulder1Dummy LeftShoulder1
    LeftShoulder1 LeftArm
    LeftArm LeftForeArm
    LeftForeArm LeftHand
    HEadDummy HEad
    RightUpLegDummy RightUpLeg
    RightUpLeg RightLeg
    RightLeg RightFoot
    RightFoot RightToes
  end

:SAMPLES-PER-SECOND 30
:FULLY-SPECIFIED
:DEGREES
1
root  -27.7178 33.9516 -25.5283 4.48435 44.6452 -1.41137
LeftUpLeg  -10.0444 10.9591 -2.47764
LeftLeg  15.5069 8.18634 1.70583
LeftFoot  -4.64359 -0.0266722 -0.65784
LeftToes  -8.61786 6.91067e-007 1.07128e-007
Spine  2.85061 -1.2104 -0.936112
Spine1  5.55396 -2.61098 -1.51575
RightShoulder  0.00335411 6.92529 6.83107
RightArm  -46.957 -23.71 73.7236
RightForeArm  30.7043 10.5935 1.8872
RightHand  0.506009 -6.81536 -8.10463
LeftShoulder1  0.0650251 -0.861938 -10.2682
LeftArm  -15.7623 10.3834 -64.9946
LeftForeArm  29.6301 -15.6569 -2.82633
LeftHand  0.211567 5.53001 4.00353
HEad  -19.7264 -5.05012 -0.941885
RightUpLeg  -16.8367 -2.52168 -1.3823
RightLeg  18.9139 -2.10844 -0.574568
RightFoot  1.74194 0.00662343 -0.0581071
RightToes  -30.3386 -0.148143 -0.256182
2
root  -27.639 33.9777 -25.4626 3.972 44.4417 -2.08084
LeftUpLeg  -10.2371 10.5209 -2.00572
LeftLeg  16.4487 8.84015 1.99242
LeftFoot  -5.06674 -0.0347557 -0.785534
LeftToes  -8.27048 6.91067e-007 1.07128e-007
Spine  2.73667 -1.15529 -0.705552
Spine1  5.31585 -2.52217 -1.05273
RightShoulder  0.00347536 6.72419 6.89762
RightArm  -48.7473 -24.6814 73.9006
RightForeArm  28.8374 10.5499 1.88033
RightHand  0.401761 -6.48023 -6.71106
LeftShoulder1  0.0650251 -0.611516 -10.4899
LeftArm  -16.5695 10.0261 -65.536
LeftForeArm  30.4021 -15.0563 -2.71222
LeftHand  0.226466 5.65783 4.20548
HEad  -19.4652 -3.3028 -1.93336
RightUpLeg  -15.9826 -3.22257 -0.982335
RightLeg  17.4991 -1.08473 -0.266928
RightFoot  2.77197 0.0103957 -0.0521061
RightToes  -31.848 -0.148143 -0.256182
3
root  -27.5659 34.0023 -25.4095 3.58326 44.1228 -2.38709
LeftUpLeg  -10.2839 10.1335 -1.79241
LeftLeg  17.3249 9.55513 2.30525
LeftFoot  -5.38498 -0.0429184 -0.912614
LeftToes  -7.78742 6.91067e-007 1.07128e-007
Spine  2.65627 -0.978594 -0.528637
Spine1  5.15419 -2.16974 -0.712804
RightShoulder  0.00340723 6.73666 6.75981
RightArm  -49.8977 -25.2659 74.1888
RightForeArm  27.0552 10.8223 1.9307
RightHand  0.480883 -7.25804 -7.19466
LeftShoulder1  0.061118 -0.563182 -10.3999
LeftArm  -17.4243 9.82694 -66.4038
LeftForeArm  30.4795 -14.7705 -2.65832
LeftHand  0.243323 5.74716 4.4693
HEad  -18.9405 -1.2301 -2.99476
RightUpLeg  -15.4079 -5.83613 -0.670844
RightLeg  16.8193 1.90197 0.443773
RightFoot  3.34073 0.00775484 0.1116
RightToes  -31.6472 -0.148143 -0.256182
4
root  -27.5058 34.01 -25.3379 3.51004 43.7271 -2.25544
LeftUpLeg  -10.1827 9.90131 -1.85201
LeftLeg  17.8984 10.1744 2.56037
LeftFoot  -5.60268 -0.0498591 -1.01894
LeftToes  -7.48208 6.91067e-007 1.07128e-007
Spine  2.52551 -0.778999 -0.439703
Spine1  4.90101 -1.75675 -0.560162
RightShoulder  0.00325407 6.94626 6.6292
RightArm  -50.0316 -25.3743 74.3005
RightForeArm  26.6174 10.8817 1.94169
RightHand  0.458769 -7.13572 -6.97134
LeftShoulder1  0.0550174 -0.469826 -10.2055
LeftArm  -17.4777 9.96745 -67.2199
LeftForeArm  29.9229 -14.9719 -2.69657
LeftHand  0.252565 5.86556 4.55154
HEad  -17.9202 1.00585 -3.75553
RightUpLeg  -15.1935 -8.1446 -0.612392
RightLeg  16.9594 4.5338 1.06875
RightFoot  3.13595 0.00342384 0.252411
RightToes  -31.0782 -0.148143 -0.256182
5
root  -27.4632 34.0138 -25.2567 3.67649 43.2768 -1.93188
LeftUpLeg  -9.99091 9.59091 -2.03992
LeftLeg  18.043 10.9268 2.77644
LeftFoot  -5.65431 -0.0548522 -1.11072
LeftToes  -7.32121 6.91067e-007 1.07128e-007
Spine  2.34758 -0.563207 -0.428784
Spine1  4.55171 -1.3269 -0.546247
RightShoulder  0.00735211 7.16773 6.6723
RightArm  -49.499 -24.7773 74.117
RightForeArm  27.5824 10.0297 1.78653
RightHand  0.457546 -7.04481 -7.04622
LeftShoulder1  0.0510745 -0.415693 -9.9931
LeftArm  -16.601 10.3284 -67.7724
LeftForeArm  29.1834 -15.6087 -2.81743
LeftHand  0.232949 5.88716 4.1531
HEad  -16.4983 2.81283 -3.94255
RightUpLeg  -14.7725 -8.64437 -0.733162
RightLeg  16.4339 5.36299 1.2122
RightFoot  3.00973 0.00364524 0.28417
RightToes  -30.5187 -0.148143 -0.256182
6
root  -27.4476 34.0128 -25.1791 3.78814 42.958 -1.92853
LeftUpLeg  -9.99301 9.44024 -1.9962
LeftLeg  18.1379 11.4028 2.91568
LeftFoot  -5.75256 -0.0596659 -1.18752
LeftToes  -7.24645 6.91067e-007 1.07128e-007
Spine  2.1389 -0.401596 -0.383369
Spine1  4.13749 -1.02262 -0.466989
RightShoulder  0.0252032 7.19668 6.98327
RightArm  -48.073 -23.5903 73.703
RightForeArm  28.3664 9.18626 1.63379
RightHand  0.464804 -6.97843 -7.23508
LeftShoulder1  0.046886 -0.29978 -9.81348
LeftArm  -15.1035 10.7105 -68.0982
LeftForeArm  28.5169 -16.4747 -2.98284
LeftHand  0.212074 5.82148 3.79464
HEad  -15.0588 4.0023 -3.65806
RightUpLeg  -14.0675 -6.76216 -0.743317
RightLeg  14.9023 3.82542 0.758922
RightFoot  3.37075 0.0100813 0.216333
RightToes  -30.6099 -0.148143 -0.256182
7
root  -27.4412 34.011 -25.1092 3.92637 43.0156 -1.97372
LeftUpLeg  -9.9088 9.30304 -1.90448
LeftLeg  17.8146 11.4719 2.86483
LeftFoot  -5.72746 -0.0596542 -1.1925
LeftToes  -7.39037 6.91067e-007 1.07128e-007
Spine  1.94667 -0.38092 -0.295567
Spine1  3.74419 -0.987722 -0.321091
RightShoulder  0.043215 7.18345 7.11303
RightArm  -46.7168 -22.1194 73.48
RightForeArm  28.983 9.31988 1.65757
RightHand  0.416456 -6.60549 -6.8304
LeftShoulder1  0.044663 -0.246141 -9.84743
LeftArm  -13.9991 11.0905 -68.2779
LeftForeArm  28.3872 -17.2664 -3.13516
LeftHand  0.195248 5.5381 3.66063
HEad  -13.8164 4.45078 -3.42883
RightUpLeg  -13.4734 -4.89054 -0.756862
RightLeg  13.5154 1.99788 0.34709
RightFoot  3.80263 0.0184234 0.11582
RightToes  -31.18 -0.148143 -0.256182
8
root  -27.4271 34.0117 -25.0566 4.20867 43.3659 -1.80164
LeftUpLeg  -9.49228 9.4887 -1.96831
LeftLeg  16.6798 10.9681 2.51282
LeftFoot  -5.39148 -0.050334 -1.069
LeftToes  -7.82982 6.91067e-007 1.07128e-007
Spine  1.79899 -0.439084 -0.254607
Spine1  3.43339 -1.08934 -0.281365
RightShoulder  0.0549693 7.03009 7.04235
RightArm  -44.8663 -20.3381 73.5112
RightForeArm  29.1285 9.81124 1.74624
RightHand  0.421066 -6.60867 -6.90639
LeftShoulder1  0.0434476 -0.273427 -9.89912
LeftArm  -13.2645 11.3879 -68.4453
LeftForeArm  28.334 -17.8658 -3.2514
LeftHand  0.188871 5.30661 3.69911
HEad  -12.7122 4.0749 -3.18616
RightUpLeg  -13.1559 -5.13691 -0.862766
RightLeg  12.7768 1.97057 0.316397
RightFoot  3.8871 0.0200836 0.115999
RightToes  -31.292 -0.148143 -0.256182
9
root  -27.4141 34.0175 -25.0302 4.70039 43.8215 -1.6055
LeftUpLeg  -9.11691 10.0505 -2.08469
LeftLeg  15.1034 9.9604 1.99961
LeftFoot  -4.85893 -0.0368777 -0.869183
LeftToes  -8.41171 6.91067e-007 1.07128e-007
Spine  1.59685 -0.489219 -0.225381
Spine1  3.01318 -1.15909 -0.274281
RightShoulder  0.0618274 6.8905 6.91948
RightArm  -42.7338 -18.6323 73.6197
RightForeArm  29.3186 10.7748 1.92099
RightHand  0.401683 -6.50147 -6.68659
LeftShoulder1  0.0424775 -0.389412 -9.7919
LeftArm  -12.894 11.7038 -68.8141
LeftForeArm  28.153 -18.1707 -3.31089
LeftHand  0.184655 5.22634 3.66941
HEad  -11.6783 3.01118 -2.911
RightUpLeg  -13.2623 -6.94852 -0.885148
RightLeg  12.4556 3.36128 0.519596
RightFoot  3.83456 0.0154958 0.210172
RightToes  -31.0761 -0.148143 -0.256182
10
root  -27.4216 34.0331 -25.0263 5.3323 44.4005 -1.47554
LeftUpLeg  -8.95531 10.6331 -2.19447
LeftLeg  13.4599 8.77522 1.5045
LeftFoot  -4.19948 -0.0240967 -0.657236
LeftToes  -8.93352 6.91067e-007 1.07128e-007
Spine  1.34923 -0.54393 -0.171725
Spine1  2.50305 -1.23463 -0.210594
RightShoulder  0.0620552 6.64539 6.74428
RightArm  -39.9132 -16.9803 73.7034
RightForeArm  28.8843 12.0935 2.16249
RightHand  0.373041 -6.27607 -6.41969
LeftShoulder1  0.0414562 -0.460422 -9.61481
LeftArm  -12.6799 11.9881 -69.3235
LeftForeArm  27.8491 -18.2759 -3.33158
LeftHand  0.177952 5.34818 3.4756
HEad  -10.8508 1.53963 -2.67291
RightUpLeg  -13.4958 -8.13141 -0.851433
RightLeg  11.9112 3.99331 0.578318
RightFoot  4.01022 0.0130408 0.26826
RightToes  -30.9534 -0.148143 -0.256182
11
root  -27.4687 34.0549 -25.0531 5.78795 45.1773 -1.39387
LeftUpLeg  -9.1006 10.6762 -2.28948
LeftLeg  12.5608 8.00824 1.24534
LeftFoot  -3.66437 -0.0166456 -0.520365
LeftToes  -9.27517 6.91067e-007 1.07128e-007
Spine  1.20676 -0.631656 -0.115053
Spine1  2.21029 -1.38223 -0.121052
RightShoulder  0.0552962 6.30386 6.65425
RightArm  -36.8659 -15.1358 73.684
RightForeArm  28.0272 13.5724 2.43652
RightHand  0.355199 -6.09334 -6.28931
LeftShoulder1  0.0404017 -0.52298 -9.39721
LeftArm  -12.5427 12.0388 -69.883
LeftForeArm  27.5462 -18.2477 -3.3262
LeftHand  0.174101 5.47458 3.43802
HEad  -10.5269 -0.122877 -2.32109
RightUpLeg  -13.5269 -8.35028 -0.843132
RightLeg  11.0989 3.47498 0.453409
RightFoot  4.43919 0.0146343 0.260569
RightToes  -31.0965 -0.148143 -0.256182
12
root  -27.5458 34.0739 -25.1169 5.97742 45.9272 -1.25357
LeftUpLeg  -9.40664 10.0718 -2.41196
LeftLeg  12.5287 7.92051 1.22726
LeftFoot  -3.39128 -0.0140334 -0.474058
LeftToes  -9.15351 6.91067e-007 1.07128e-007
Spine  1.23331 -0.679043 -0.108438
Spine1  2.26699 -1.46265 -0.107628
RightShoulder  0.0443782 6.00025 6.53949
RightArm  -34.2407 -13.1253 73.7455
RightForeArm  26.9366 15.0644 2.71672
RightHand  0.345955 -5.95321 -6.26885
LeftShoulder1  0.0393318 -0.656427 -9.21365
LeftArm  -12.3633 11.8708 -70.2608
LeftForeArm  27.3327 -18.2828 -3.33314
LeftHand  0.172736 5.50585 3.43695
HEad  -10.78 -1.93643 -1.83938
RightUpLeg  -13.4406 -8.20713 -0.932047
RightLeg  10.5271 2.56022 0.308554
RightFoot  4.81895 0.0189046 0.208429
RightToes  -31.1798 -0.148143 -0.256182
13
root  -27.6258 34.0858 -25.2084 5.9044 46.3122 -1.14689
LeftUpLeg  -9.62393 9.866 -2.50135
LeftLeg  12.793 7.73556 1.23516
LeftFoot  -3.25694 -0.0126122 -0.443633
LeftToes  -9.11085 6.91067e-007 1.07128e-007
Spine  1.35716 -0.559099 -0.1562
Spine1  2.5269 -1.21241 -0.199643
RightShoulder  0.035364 5.79749 6.37909
RightArm  -32.0821 -11.2595 73.9055
RightForeArm  25.7148 16.8065 3.04904
RightHand  0.355879 -5.96646 -6.44371
LeftShoulder1  0.0382644 -0.913538 -8.99127
LeftArm  -12.1048 11.7168 -70.4442
LeftForeArm  27.0777 -18.4587 -3.36768
LeftHand  0.171672 5.50127 3.38486
HEad  -11.1825 -3.76277 -1.09056
RightUpLeg  -13.3577 -7.85955 -1.05269
RightLeg  10.2984 1.80739 0.210929
RightFoot  5.13416 0.0230398 0.155527
RightToes  -31.1768 -0.148143 -0.256182
14
root  -27.6856 34.0888 -25.2981 5.79107 46.3357 -1.08102
LeftUpLeg  -9.69399 10.4248 -2.58145
LeftLeg  12.8592 7.16137 1.15234
LeftFoot  -3.15689 -0.0109537 -0.397513
LeftToes  -9.15076 6.91067e-007 1.07128e-007
Spine  1.48744 -0.327705 -0.21893
Spine1  2.79788 -0.733968 -0.334679
RightShoulder  0.0316448 5.76131 6.08007
RightArm  -30.3209 -9.5253 74.1828
RightForeArm  24.6598 18.3729 3.35326
RightHand  0.346667 -5.92387 -6.31539
LeftShoulder1  0.0372172 -1.0256 -8.79291
LeftArm  -11.8565 11.7097 -70.4966
LeftForeArm  26.8185 -18.7597 -3.42685
LeftHand  0.171146 5.44147 3.29315
HEad  -11.4618 -5.22803 -0.292884
RightUpLeg  -13.4286 -7.8731 -1.12964
RightLeg  10.3937 1.79305 0.212282
RightFoot  5.27211 0.0233504 0.159184
RightToes  -31.0803 -0.148143 -0.256182
15
root  -27.7299 34.0913 -25.3723 5.81398 46.1416 -1.03986
LeftUpLeg  -9.64773 11.1567 -2.67104
LeftLeg  12.4569 6.61538 1.01736
LeftFoot  -2.91102 -0.00857197 -0.337369
LeftToes  -9.37704 6.91067e-007 1.07128e-007
Spine  1.54897 -0.0683481 -0.277102
Spine1  2.92429 -0.193751 -0.467877
RightShoulder  0.0303667 5.89535 5.74812
RightArm  -29.1603 -7.85798 74.4798
RightForeArm  24.2419 19.1429 3.50484
RightHand  0.335878 -5.90158 -6.13221
LeftShoulder1  0.0362082 -0.994848 -8.69823
LeftArm  -11.8985 11.9937 -70.3937
LeftForeArm  26.5651 -19.1206 -3.49807
LeftHand  0.170626 5.41214 3.23471
HEad  -11.4307 -6.33953 0.306276
RightUpLeg  -13.7209 -8.35924 -1.12562
RightLeg  10.6436 2.47536 0.303465
RightFoot  5.35172 0.0193348 0.227221
RightToes  -31.0429 -0.148143 -0.256182
